{
    "asset" : {
        "generator" : "Khronos glTF Blender I/O v1.8.19",
        "version" : "2.0"
    },
    "scene" : 0,
    "scenes" : [
        {
            "name" : "Scene",
            "nodes" : [
                0,
                1,
                2
            ]
        }
    ],
    "nodes" : [
        {
            "mesh" : 0,
            "name" : "Cube",
            "rotation" : [
                0,
                -0.018613016232848167,
                0,
                0.9998267889022827
            ],
            "scale" : [
                1.721067190170288,
                1.721067190170288,
                1.721067190170288
            ],
            "translation" : [
                -0.017588788643479347,
                1.1170268058776855,
                0.4756896197795868
            ]
        },
        {
            "name" : "Empty",
            "rotation" : [
                -0.0015408375766128302,
                0.7059065699577332,
                0.001103920047171414,
                0.7083024382591248
            ],
            "translation" : [
                0.030126865953207016,
                -0.25821882486343384,
                0.20617863535881042
            ]
        },
        {
            "mesh" : 1,
            "name" : "Cube.001",
            "rotation" : [
                0,
                -0.018613016232848167,
                0,
                0.9998267889022827
            ],
            "scale" : [
                1.721067190170288,
                1.721067190170288,
                1.721067190170288
            ],
            "translation" : [
                -0.017588788643479347,
                1.1170268058776855,
                0.4756896197795868
            ]
        }
    ],
    "materials" : [
        {
            "doubleSided" : true,
            "name" : "Material.002",
            "pbrMetallicRoughness" : {
                "baseColorFactor" : [
                    0.028999999165534973,
                    0.028999999165534973,
                    0.028999999165534973,
                    1
                ],
                "metallicFactor" : 0.5780322551727295,
                "roughnessFactor" : 0.4000000059604645
            }
        },
        {
            "doubleSided" : true,
            "name" : "red",
            "pbrMetallicRoughness" : {
                "baseColorTexture" : {
                    "index" : 0
                },
                "metallicFactor" : 0,
                "roughnessFactor" : 0.2939999997615814
            }
        }
    ],
    "meshes" : [
        {
            "name" : "Cube",
            "primitives" : [
                {
                    "attributes" : {
                        "POSITION" : 0,
                        "NORMAL" : 1,
                        "TEXCOORD_0" : 2
                    },
                    "indices" : 3,
                    "material" : 0
                }
            ]
        },
        {
            "name" : "Cube.002",
            "primitives" : [
                {
                    "attributes" : {
                        "POSITION" : 4,
                        "NORMAL" : 5,
                        "TEXCOORD_0" : 6
                    },
                    "indices" : 7,
                    "material" : 1
                }
            ]
        }
    ],
    "textures" : [
        {
            "sampler" : 0,
            "source" : 0
        }
    ],
    "images" : [
        {
            "bufferView" : 8,
            "mimeType" : "image/png",
            "name" : "Lady Bug"
        }
    ],
    "accessors" : [
        {
            "bufferView" : 0,
            "componentType" : 5126,
            "count" : 618,
            "max" : [
                1.2430062294006348,
                0.738152265548706,
                1.1939287185668945
            ],
            "min" : [
                0,
                -0.33547577261924744,
                -1.6330257654190063
            ],
            "type" : "VEC3"
        },
        {
            "bufferView" : 1,
            "componentType" : 5126,
            "count" : 618,
            "type" : "VEC3"
        },
        {
            "bufferView" : 2,
            "componentType" : 5126,
            "count" : 618,
            "type" : "VEC2"
        },
        {
            "bufferView" : 3,
            "componentType" : 5123,
            "count" : 1632,
            "type" : "SCALAR"
        },
        {
            "bufferView" : 4,
            "componentType" : 5126,
            "count" : 80,
            "max" : [
                0.8512129783630371,
                0.790639340877533,
                1.1366357803344727
            ],
            "min" : [
                -0.0010794670088216662,
                -0.007543932646512985,
                -0.6507107019424438
            ],
            "type" : "VEC3"
        },
        {
            "bufferView" : 5,
            "componentType" : 5126,
            "count" : 80,
            "type" : "VEC3"
        },
        {
            "bufferView" : 6,
            "componentType" : 5126,
            "count" : 80,
            "type" : "VEC2"
        },
        {
            "bufferView" : 7,
            "componentType" : 5123,
            "count" : 204,
            "type" : "SCALAR"
        }
    ],
    "bufferViews" : [
        {
            "buffer" : 0,
            "byteLength" : 7416,
            "byteOffset" : 0
        },
        {
            "buffer" : 0,
            "byteLength" : 7416,
            "byteOffset" : 7416
        },
        {
            "buffer" : 0,
            "byteLength" : 4944,
            "byteOffset" : 14832
        },
        {
            "buffer" : 0,
            "byteLength" : 3264,
            "byteOffset" : 19776
        },
        {
            "buffer" : 0,
            "byteLength" : 960,
            "byteOffset" : 23040
        },
        {
            "buffer" : 0,
            "byteLength" : 960,
            "byteOffset" : 24000
        },
        {
            "buffer" : 0,
            "byteLength" : 640,
            "byteOffset" : 24960
        },
        {
            "buffer" : 0,
            "byteLength" : 408,
            "byteOffset" : 25600
        },
        {
            "buffer" : 0,
            "byteLength" : 152898,
            "byteOffset" : 26008
        }
    ],
    "samplers" : [
        {
            "magFilter" : 9729,
            "minFilter" : 9987
        }
    ],
    "buffers" : [
        {
            "byteLength" : 178908,
            "uri" : "data:application/octet-stream;base64,"
        }
    ]
}
